<svg width="512" height="512" viewBox="0 0 512 512" xmlns="http://www.w3.org/2000/svg"><title>512</title><desc>Created with Sketch.</desc><g fill="none" fill-rule="evenodd"><g><circle fill="#E96945" cx="256" cy="256" r="256"/><path d="M209.968 282.92c-3.57 2.216-7.824 4.366-12.766 6.452-1.176.52-6.337 2.406-15.482 5.655l8.307-29.223 4.153-19.568c2.21-9.642 5.198-20.647 8.966-33.017 2.99-10.027 6.498-20.77 10.526-32.228h-15.43c-2.734 5.078-5.5 11.817-8.3 20.215-2.8 8.4-5.437 17.74-7.91 28.027l-6.12 25.18c-5.98 6.517-11.05 11.078-15.21 13.685-4.16 2.605-8.386 3.908-12.676 3.908-4.16 0-7.574-1.465-10.24-4.395-2.664-2.93-3.997-6.673-3.997-11.23 0-5.47 2.343-16.862 7.03-34.18 4.688-17.318 7.032-29.1 7.032-35.35 0-2.475-.26-4.494-.782-6.056h-10.547c-11.458 9.375-21.94 17.122-31.445 23.242l4.492 8.983c7.683-4.427 13.998-8.658 18.946-12.695 0 5.6-2.54 17.643-7.618 36.133-2.343 8.595-3.515 15.756-3.515 21.485 0 7.683 2.534 14.128 7.603 19.336 5.07 5.21 11.31 7.814 18.718 7.814 9.1 0 18.522-4.826 28.272-14.478l-6.937 28.54-6.446 1.953c-16.016 5.078-24.675 7.877-25.977 8.398-14.453 5.73-21.68 13.54-21.68 23.437 0 6.25 2.05 11.296 6.153 15.137 4.1 3.84 9.538 5.762 16.308 5.762 12.76 0 22.917-4.623 30.47-13.867 5.86-7.162 10.546-17.644 14.062-31.446 6.64-2.082 13.28-4.23 19.922-6.444 5.446-1.792 9.78-3.348 12.998-4.666.886 3.573 2.315 6.918 4.287 10.037 3.58 5.664 8.82 8.496 15.722 8.496 18.88 0 38.346-7.226 58.398-21.68v-16.406c-10.287 8.985-19.4 15.462-27.344 19.434-7.943 3.972-15.82 5.958-23.633 5.958-4.556 0-7.876-2.018-9.96-6.055-1.432-2.734-2.148-6.315-2.148-10.742v-.78l4.1-1.758c10.81-4.427 18.62-8.4 23.44-11.914 9.114-6.64 13.67-14.388 13.67-23.242 0-9.896-5.207-14.844-15.624-14.844-11.068 0-20.833 5.5-29.297 16.504-7.394 9.614-11.56 20.445-12.492 32.495zm-49.616 29.908l-6.055 2.15c-15.495 5.598-24.024 8.853-25.586 9.764-3.905 2.344-5.858 5.078-5.858 8.203 0 2.995 1.01 5.37 3.027 7.13 2.017 1.757 4.654 2.636 7.91 2.636 6.12 0 11.457-2.44 16.015-7.323 4.557-4.883 8.073-12.403 10.547-22.56zm67.773-40.04c8.073-2.994 14.518-6.477 19.336-10.448 4.82-3.972 7.227-7.91 7.227-11.817 0-2.864-1.497-4.296-4.492-4.296-4.297 0-8.66 2.636-13.086 7.91-4.428 5.273-7.422 11.49-8.985 18.652zm122.852-24.218h3.125c2.864-15.885 4.817-25.976 5.86-30.273 2.603-10.547 7.03-19.4 13.28-26.563 7.943-7.422 15.755-11.132 23.438-11.132 5.468 0 9.733 1.855 12.793 5.566 3.06 3.71 4.59 8.887 4.59 15.527 0 12.5-4.297 24.22-12.89 35.157-8.595 10.937-19.207 18.033-31.837 21.29-2.734 15.884-7.096 28.514-13.086 37.89-8.203 12.76-19.206 19.14-33.008 19.14-8.203 0-15.17-2.604-20.898-7.813-4.558-4.167-6.836-7.748-6.836-10.743 0-2.083 1.334-4.525 4.004-7.324 2.67-2.8 4.655-4.2 5.957-4.2 1.04 0 3.254 2.865 6.64 8.594 3.385 5.73 7.617 8.594 12.695 8.594 6.38 0 11.98-3.58 16.797-10.74 4.817-7.162 8.463-17.32 10.937-30.47-10.808 0-19.727-2.864-26.76-8.593-7.03-5.73-10.546-12.956-10.546-21.68 0-5.6.847-9.96 2.54-13.086 2.213-4.036 5.73-6.054 10.546-6.054 3.776 0 5.664 1.042 5.664 3.125 0 1.043-.976 4.298-2.93 9.767-.91 2.474-1.366 4.752-1.366 6.836 0 4.948 1.985 9.05 5.957 12.304 3.97 3.256 9.082 4.883 15.332 4.883zm21.093-10.547l-.78 6.836c7.812-3.777 14.42-9.636 19.823-17.58 5.404-7.94 8.106-16.145 8.106-24.608 0-5.34-1.89-8.008-5.665-8.008-4.297 0-8.008 2.41-11.133 7.227-4.688 7.032-8.138 19.076-10.352 36.133z" fill="#fff"/></g></g></svg>